<?xml version="1.0" standalone="no"?>
<!DOCTYPE svg PUBLIC "-//W3C//DTD SVG 20010904//EN"
 "http://www.w3.org/TR/2001/REC-SVG-20010904/DTD/svg10.dtd">
<svg version="1.0" xmlns="http://www.w3.org/2000/svg"
 width="234.000000pt" height="80.000000pt" viewBox="0 0 234.000000 80.000000"
 preserveAspectRatio="xMidYMid meet">

<g transform="translate(0.000000,80.000000) scale(0.100000,-0.100000)"
fill="#000000" stroke="none">
<path d="M311 789 c-24 -5 -60 -17 -80 -27 -36 -19 -36 -20 -34 -79 1 -32 6
-77 11 -98 l8 -40 34 50 c18 27 62 84 97 127 62 76 63 78 36 77 -15 -1 -48 -5
-72 -10z m-54 -135 c3 -8 1 -20 -6 -27 -14 -14 -47 15 -37 32 10 16 36 13 43
-5z"/>
<path d="M409 738 c-59 -70 -119 -151 -153 -211 l-28 -48 17 -97 c22 -121 47
-205 92 -305 34 -72 38 -77 67 -77 49 0 146 28 194 57 64 37 118 96 154 171
31 62 33 74 33 167 0 97 -2 104 -38 177 -42 86 -98 142 -181 183 -94 45 -106
44 -157 -17z m269 -144 c21 -14 22 -21 22 -168 0 -162 -4 -176 -48 -176 -14 0
-33 -11 -44 -25 -26 -33 -69 -55 -108 -55 -38 0 -101 31 -118 59 -7 12 -22 21
-34 21 -12 0 -30 7 -40 17 -16 14 -18 33 -18 158 0 173 -1 173 115 178 207 8
250 7 273 -9z"/>
<path d="M522 559 c2 -6 8 -10 13 -10 5 0 11 4 13 10 2 6 -4 11 -13 11 -9 0
-15 -5 -13 -11z"/>
<path d="M577 564 c-8 -8 1 -24 14 -24 5 0 9 7 9 15 0 15 -12 20 -23 9z"/>
<path d="M627 564 c-8 -8 1 -24 14 -24 5 0 9 7 9 15 0 15 -12 20 -23 9z"/>
<path d="M334 507 c-10 -28 1 -210 14 -215 8 -2 12 7 12 28 0 68 67 130 140
130 66 0 125 -53 136 -122 12 -72 25 -23 22 83 l-3 104 -158 3 c-125 2 -159 0
-163 -11z"/>
<path d="M480 390 c-9 -18 -8 -20 15 -20 23 0 24 2 15 20 -6 11 -13 20 -15 20
-2 0 -9 -9 -15 -20z"/>
<path d="M420 375 c-10 -12 -10 -15 3 -15 8 0 17 7 21 15 3 8 2 15 -3 15 -5 0
-14 -7 -21 -15z"/>
<path d="M550 382 c0 -12 19 -26 26 -19 2 2 -2 10 -11 17 -9 8 -15 8 -15 2z"/>
<path d="M410 305 c0 -8 7 -15 15 -15 8 0 15 7 15 15 0 8 -7 15 -15 15 -8 0
-15 -7 -15 -15z"/>
<path d="M462 308 c5 -15 57 -18 61 -3 1 6 -13 11 -32 13 -24 3 -32 0 -29 -10z"/>
<path d="M550 304 c0 -17 22 -14 28 4 2 7 -3 12 -12 12 -9 0 -16 -7 -16 -16z"/>
<path d="M420 235 c7 -8 16 -15 21 -15 5 0 6 7 3 15 -4 8 -13 15 -21 15 -13 0
-13 -3 -3 -15z"/>
<path d="M550 234 c0 -14 3 -14 15 -4 8 7 15 14 15 16 0 2 -7 4 -15 4 -8 0
-15 -7 -15 -16z"/>
<path d="M480 220 c6 -11 13 -20 15 -20 2 0 9 9 15 20 9 18 8 20 -15 20 -23 0
-24 -2 -15 -20z"/>
<path d="M110 673 c-113 -128 -140 -293 -71 -439 16 -35 34 -64 38 -64 4 0 15
38 25 85 9 47 32 120 52 161 37 77 47 112 23 80 -18 -24 -51 -17 -55 12 -4 28
23 40 51 23 17 -11 19 -11 14 2 -3 9 -11 53 -17 99 -7 46 -13 84 -15 86 -1 2
-22 -19 -45 -45z m37 -69 c7 -18 -17 -38 -31 -24 -11 11 -1 40 14 40 6 0 13
-7 17 -16z m-57 -304 c0 -11 -6 -20 -14 -20 -18 0 -29 16 -21 30 11 18 35 11
35 -10z"/>
<path d="M870 526 c0 -8 7 -16 15 -20 22 -8 22 -196 0 -196 -8 0 -15 -7 -15
-15 0 -12 17 -15 95 -15 l95 0 0 35 c0 39 -24 50 -33 15 -4 -15 -14 -20 -41
-20 l-36 0 0 95 c0 74 3 97 14 101 8 3 12 12 9 20 -7 20 -103 20 -103 0z"/>
<path d="M1090 526 c0 -8 7 -16 15 -20 22 -8 22 -196 0 -196 -8 0 -15 -7 -15
-15 0 -11 12 -15 50 -15 36 0 50 4 50 14 0 8 -5 16 -12 18 -14 5 -14 176 1
191 25 25 11 37 -39 37 -36 0 -50 -4 -50 -14z"/>
<path d="M1220 526 c0 -8 7 -16 15 -20 22 -8 22 -196 0 -196 -8 0 -15 -7 -15
-15 0 -11 12 -15 50 -15 36 0 50 4 50 14 0 8 -7 16 -15 20 -11 4 -15 22 -15
71 0 36 3 65 8 65 4 0 29 -39 57 -85 39 -67 54 -85 72 -85 23 0 23 2 23 110 0
89 3 112 15 116 8 4 15 12 15 20 0 10 -14 14 -50 14 -36 0 -50 -4 -50 -14 0
-8 7 -16 15 -20 11 -4 15 -22 15 -71 0 -36 -4 -65 -8 -65 -5 0 -30 38 -57 85
-48 83 -50 85 -87 85 -26 0 -38 -4 -38 -14z"/>
<path d="M1545 507 c-42 -42 -54 -95 -34 -151 26 -72 98 -100 177 -67 32 13
33 15 30 65 l-3 51 -40 0 c-30 0 -41 -4 -43 -17 -2 -13 3 -18 18 -18 17 0 21
-5 18 -27 -2 -23 -9 -29 -34 -31 -19 -2 -40 4 -55 17 -20 16 -24 28 -24 74 0
67 22 97 71 97 23 0 38 -7 52 -27 21 -29 42 -24 42 11 0 29 -51 56 -105 56
-29 0 -45 -8 -70 -33z"/>
<path d="M1750 527 c0 -8 7 -17 15 -21 12 -4 15 -25 15 -101 0 -78 -3 -95 -15
-95 -8 0 -15 -7 -15 -15 0 -11 12 -15 50 -15 51 0 64 13 34 34 -12 9 -14 27
-12 81 l3 70 34 -92 c45 -124 57 -124 102 0 l34 92 3 -70 c2 -54 0 -72 -12
-81 -30 -21 -17 -34 34 -34 38 0 50 4 50 15 0 8 -4 15 -10 15 -6 0 -10 40 -10
100 0 60 4 100 10 100 6 0 10 7 10 16 0 12 -10 14 -47 12 l-47 -3 -30 -92
c-17 -51 -33 -93 -36 -93 -3 0 -19 42 -36 93 l-30 92 -47 3 c-36 2 -47 0 -47
-11z"/>
<path d="M2155 430 c-21 -60 -44 -115 -52 -121 -24 -20 -14 -29 32 -29 46 0
54 7 33 28 -19 19 9 42 52 42 40 0 61 -23 40 -44 -19 -19 -10 -26 35 -26 32 0
45 4 45 14 0 8 -4 16 -10 18 -5 2 -27 53 -49 113 -34 97 -42 110 -64 113 -23
3 -27 -4 -62 -108z m83 -7 c12 -36 8 -43 -25 -43 -26 0 -28 12 -12 59 13 36
21 32 37 -16z"/>
<path d="M162 338 c-17 -51 -35 -120 -42 -153 l-11 -60 33 -28 c37 -32 92 -62
150 -83 43 -15 42 -15 26 20 -10 23 -12 24 -23 9 -15 -21 -48 -10 -43 14 2 11
12 18 26 17 17 0 21 3 16 15 -29 70 -56 161 -71 244 -10 53 -21 97 -24 97 -4
0 -20 -42 -37 -92z"/>
</g>
</svg>
