<svg width="264" height="117" xmlns="http://www.w3.org/2000/svg" preserveAspectRatio="xMidYMid meet">

 <g>
  <title>background</title>
  <rect fill="none" id="canvas_background" height="402" width="582" y="-1" x="-1"/>
 </g>
 <g>
  <title>Layer 1</title>
  <g id="svg_1" fill="white" transform="translate(0,117) scale(0.10000000149011612,-0.10000000149011612) ">
   <path stroke="#004358" fill="#004358" id="svg_2" d="m375,946c-37,-12 -105,-43 -105,-49c1,-32 23,-123 33,-138c15,-20 16,-19 48,28c18,26 57,76 86,110l54,63l-38,-1c-21,0 -56,-6 -78,-13zm-36,-142c-9,-11 -15,-12 -25,-3c-11,9 -12,15 -3,25c9,11 15,12 25,3c11,-9 12,-15 3,-25z"/>
   <path stroke="#004358" fill="#004358" id="svg_3" d="m484,897c-81,-90 -177,-236 -171,-261c3,-12 17,-70 31,-131c30,-129 47,-177 90,-262c28,-57 34,-63 62,-63c54,0 159,38 211,77c129,95 189,260 149,408c-36,137 -135,240 -270,280l-45,14l-57,-62zm274,-139c8,-8 12,-57 12,-156c0,-151 -6,-172 -47,-172c-10,0 -35,-15 -55,-34c-20,-19 -51,-37 -68,-41c-42,-9 -93,10 -120,45c-15,20 -32,30 -49,30c-47,0 -51,13 -51,164c0,116 3,143 17,158c14,16 34,18 183,18c116,0 170,-4 178,-12z"/>
   <path stroke="#004358" fill="#004358" id="svg_4" d="m606,731c-4,-5 -2,-12 3,-15c5,-4 12,-2 15,3c4,5 2,12 -3,15c-5,4 -12,2 -15,-3z"/>
   <path stroke="#004358" fill="#004358" id="svg_5" d="m656,731c-4,-5 -2,-12 3,-15c5,-4 12,-2 15,3c4,5 2,12 -3,15c-5,4 -12,2 -15,-3z"/>
   <path stroke="#004358" fill="#004358" id="svg_6" d="m706,731c-4,-5 -2,-12 3,-15c5,-4 12,-2 15,3c4,5 2,12 -3,15c-5,4 -12,2 -15,-3z"/>
   <path stroke="#004358" fill="#004358" id="svg_7" d="m417,684c-12,-13 -8,-199 5,-212c20,-20 28,-14 28,18c0,73 51,120 130,120c44,0 55,-4 85,-34c24,-24 37,-48 41,-76c5,-30 11,-40 23,-38c14,3 16,20 16,113l0,110l-161,3c-88,1 -163,-1 -167,-4z"/>
   <path stroke="#004358" fill="#004358" id="svg_8" d="m560,560c-9,-18 -8,-20 15,-20c23,0 24,2 15,20c-6,11 -13,20 -15,20c-2,0 -9,-9 -15,-20z"/>
   <path stroke="#004358" fill="#004358" id="svg_9" d="m505,550c-17,-18 -17,-20 -1,-20c9,0 19,7 23,15c9,25 -2,27 -22,5z"/>
   <path stroke="#004358" fill="#004358" id="svg_10" d="m620,556c0,-9 7,-19 15,-23c25,-9 27,2 5,22c-18,17 -20,17 -20,1z"/>
   <path stroke="#004358" fill="#004358" id="svg_11" d="m495,490c-7,-12 2,-30 16,-30c5,0 9,9 9,20c0,21 -15,27 -25,10z"/>
   <path stroke="#004358" fill="#004358" id="svg_12" d="m545,490c-4,-7 -3,-16 3,-22c14,-14 57,-6 57,12c0,18 -50,26 -60,10z"/>
   <path stroke="#004358" fill="#004358" id="svg_13" d="m630,480c0,-13 5,-20 13,-17c6,2 12,10 12,17c0,7 -6,15 -12,18c-8,2 -13,-5 -13,-18z"/>
   <path stroke="#004358" fill="#004358" id="svg_14" d="m505,410c20,-22 31,-20 22,5c-4,8 -14,15 -23,15c-16,0 -16,-2 1,-20z"/>
   <path stroke="#004358" fill="#004358" id="svg_15" d="m623,415c-9,-25 2,-27 22,-5c17,18 17,20 1,20c-9,0 -19,-7 -23,-15z"/>
   <path stroke="#004358" fill="#004358" id="svg_16" d="m560,400c6,-11 13,-20 15,-20c2,0 9,9 15,20c9,18 8,20 -15,20c-23,0 -24,-2 -15,-20z"/>
   <path stroke="#004358" fill="#004358" id="svg_17" d="m201,841c-117,-119 -143,-303 -63,-453c26,-50 42,-54 42,-10c0,40 35,155 69,228l30,64l-14,77c-8,43 -16,92 -17,108l-3,30l-44,-44zm27,-72c-2,-6 -8,-10 -13,-10c-5,0 -11,4 -13,10c-2,6 4,11 13,11c9,0 15,-5 13,-11zm27,-89c0,-29 -32,-41 -41,-16c-9,24 4,48 23,44c12,-2 18,-12 18,-28zm-85,-206c0,-17 -22,-14 -28,4c-2,7 3,12 12,12c9,0 16,-7 16,-16z"/>
   <path stroke="#004358" fill="#004358" id="svg_18" d="m1010,580l0,-110l85,0l85,0l0,32l0,31l-23,-21c-14,-13 -36,-22 -55,-22l-32,0l0,100l0,100l-30,0l-30,0l0,-110z"/>
   <path stroke="#004358" fill="#004358" id="svg_19" d="m1248,683c8,-3 12,-34 12,-103c0,-69 -4,-100 -12,-103c-7,-3 10,-5 37,-5c28,0 44,2 38,5c-9,3 -13,34 -13,103c0,69 4,100 13,103c6,3 -10,5 -38,5c-27,0 -44,-2 -37,-5z"/>
   <path stroke="#004358" fill="#004358" id="svg_20" d="m1410,590c0,-82 -3,-100 -15,-100c-8,0 -15,-4 -15,-10c0,-5 18,-10 40,-10c22,0 40,5 40,10c0,6 -7,10 -15,10c-12,0 -15,14 -15,67l0,68l78,-78c42,-42 81,-77 85,-77c4,0 7,45 7,100c0,82 3,100 15,100c8,0 15,5 15,10c0,6 -18,10 -40,10c-22,0 -40,-4 -40,-10c0,-5 7,-10 15,-10c12,0 15,-13 15,-57l0,-57l-68,67c-95,94 -102,92 -102,-33z"/>
   <path stroke="#004358" fill="#004358" id="svg_21" d="m1711,664c-41,-52 -36,-128 11,-171c14,-13 36,-18 79,-18l59,0l0,42c0,36 -3,43 -20,43c-14,0 -20,-7 -20,-23c0,-33 -23,-62 -44,-54c-22,9 -36,48 -36,100c0,94 28,112 87,55l33,-32l0,42l0,42l-64,0c-58,0 -67,-3 -85,-26z"/>
   <path stroke="#004358" fill="#004358" id="svg_22" d="m1960,586c0,-74 -4,-106 -12,-109c-7,-3 3,-5 22,-5c19,0 29,2 23,5c-9,3 -13,31 -12,91l1,87l30,-92c16,-51 34,-93 39,-93c5,0 9,5 9,11c0,6 6,25 14,42c7,18 20,52 27,77l14,45l3,-79c2,-57 -1,-82 -10,-87c-8,-5 10,-8 42,-8c30,0 49,3 43,6c-9,3 -13,35 -13,109l0,104l-35,0c-26,0 -35,-4 -36,-17c0,-10 -8,-38 -18,-63l-19,-45l-17,63l-18,62l-38,0l-39,0l0,-104z"/>
   <path stroke="#004358" fill="#004358" id="svg_23" d="m2350,679c0,-6 -13,-40 -30,-76c-16,-35 -30,-67 -30,-70c0,-3 -9,-18 -21,-34l-20,-29l24,0c18,0 23,5 23,23c-1,18 5,22 37,25c27,2 39,-1 44,-13c3,-10 0,-21 -8,-26c-9,-6 4,-9 38,-9l53,0l-20,43c-57,127 -70,157 -70,166c0,6 -4,11 -10,11c-5,0 -10,-5 -10,-11zm10,-131c0,-5 -11,-8 -25,-8c-23,0 -24,2 -13,25c10,23 12,23 24,7c7,-9 14,-20 14,-24z"/>
   <path stroke="#004358" fill="#004358" id="svg_24" d="m248,513c-9,-27 -23,-85 -33,-130l-18,-82l29,-26c57,-51 184,-103 184,-75c0,7 -8,24 -18,38c-10,15 -26,47 -35,72c-18,51 -57,210 -57,234c0,9 -8,16 -18,16c-14,0 -23,-13 -34,-47zm128,-274c10,-17 -13,-36 -27,-22c-12,12 -4,33 11,33c5,0 12,-5 16,-11z"/>
  </g>
 </g>
</svg>